<?xml version="1.0" encoding="utf-8"?>
<!-- Generator: Adobe Illustrator 18.0.0, SVG Export Plug-In . SVG Version: 6.00 Build 0)  -->
<!DOCTYPE svg PUBLIC "-//W3C//DTD SVG 1.1//EN" "http://www.w3.org/Graphics/SVG/1.1/DTD/svg11.dtd">
<svg version="1.1" id="Layer_1" xmlns="http://www.w3.org/2000/svg" xmlns:xlink="http://www.w3.org/1999/xlink" x="0px" y="0px"
	 viewBox="0 0 1280.2 800" enable-background="new 0 0 1280.2 800" xml:space="preserve">
<ellipse cx="586.9" cy="715.9" rx="34.2" ry="39.9"/>
<path d="M630.6,300.4c-11.1,109.2-23.5,218.4-34.6,329.1c-5.5,0-12.4,0-18,0c-11.1-109.2-23.5-219.8-34.6-329.1
	c-2.8,0-5.5-1.4-9.7-1.4c-9.7,11.1-19.4,22.1-27.7,33.2c-12.4,15.2-24.9,24.9-44.2,12.4c-19.4-13.8-29-31.8-13.8-53.9
	c8.3-12.4,22.1-24.9,35.9-30.4c67.7-30.4,136.9-30.4,206,0c15.2,6.9,34.6,22.1,37.3,35.9c4.1,13.8-6.9,34.6-18,48.4
	c-2.8,4.1-27.7-4.1-38.7-12.4c-12.4-8.3-20.7-22.1-30.4-33.2C637.5,297.7,634.7,299.1,630.6,300.4z"/>
</svg>
