<?xml version="1.0" encoding="utf-8"?>
<!-- Generator: Adobe Illustrator 18.0.0, SVG Export Plug-In . SVG Version: 6.00 Build 0)  -->
<!DOCTYPE svg PUBLIC "-//W3C//DTD SVG 1.1//EN" "http://www.w3.org/Graphics/SVG/1.1/DTD/svg11.dtd">
<svg version="1.1" id="Layer_1" xmlns="http://www.w3.org/2000/svg" xmlns:xlink="http://www.w3.org/1999/xlink" x="0px" y="0px"
	 viewBox="0 0 1280.2 800" enable-background="new 0 0 1280.2 800" xml:space="preserve">
<ellipse cx="586.9" cy="715.9" rx="34.2" ry="39.9"/>
<path d="M581.3,624.5c-2.7-10.9-8.2-20.5-9.6-31.4c-5.5-56-10.9-113.4-15-169.5c-1.4-30.1-15-43.7-45.1-39.6
	c-15,1.4-30.1,2.7-43.7-1.4c-8.2-1.4-19.1-13.7-19.1-20.5c0-6.8,10.9-20.5,19.1-21.9c16.4-4.1,34.2-2.7,50.6-1.4
	c20.5,1.4,28.7-6.8,27.3-28.7c-1.4-13.7-4.1-30.1,2.7-39.6c8.2-13.7,24.6-32.8,35.5-31.4c13.7,1.4,31.4,19.1,38.3,32.8
	c8.2,17.8,0,49.2,12.3,60.1c12.3,10.9,41,2.7,61.5,8.2c8.2,1.4,17.8,13.7,20.5,23.2c1.4,5.5-12.3,13.7-20.5,19.1
	c-2.7,2.7-8.2,0-13.7,0c-65.6,1.4-64.2,1.4-71.1,68.3c-5.5,57.4-10.9,113.4-16.4,170.8C590.9,623.1,585.4,623.1,581.3,624.5z"/>
</svg>
