<?xml version="1.0" encoding="utf-8"?>
<!-- Generator: Adobe Illustrator 18.0.0, SVG Export Plug-In . SVG Version: 6.00 Build 0)  -->
<!DOCTYPE svg PUBLIC "-//W3C//DTD SVG 1.1//EN" "http://www.w3.org/Graphics/SVG/1.1/DTD/svg11.dtd">
<svg version="1.1" id="Layer_1" xmlns="http://www.w3.org/2000/svg" xmlns:xlink="http://www.w3.org/1999/xlink" x="0px" y="0px"
	 viewBox="0 0 1280.2 800" enable-background="new 0 0 1280.2 800" xml:space="preserve">
<ellipse cx="586.9" cy="715.9" rx="34.2" ry="39.9"/>
<path d="M607.3,611.7c21.8-28.5,40.8-59.8,63.9-87c23.1-27.2,50.3-51.7,74.8-78.9c31.3-34,40.8-74.8,36.7-119.6
	c-4.1-34-25.8-58.5-59.8-65.3c-36.7-6.8-55.7,9.5-53,47.6c0,5.4,1.4,10.9,1.4,16.3c0,20.4-2.7,44.9-27.2,39.4
	c-10.9-2.7-25.8-28.5-25.8-43.5c1.4-53,61.2-95.2,115.6-81.6c51.7,12.2,92.4,43.5,108.8,96.5c15,48.9-1.4,91.1-35.3,127.8
	c-13.6,15-31.3,25.8-47.6,38.1c-24.5,17.7-51.7,32.6-76.1,50.3c-24.4,17.7-47.8,38.2-70.9,57.2C610,611.7,608.7,611.7,607.3,611.7z"
	/>
<path d="M566.5,613.1C508,569.6,455,530.2,402,489.4c-47.6-36.7-72.1-85.6-57.1-145.5c15-57.1,59.8-87,112.8-103.3
	c54.4-16.3,115.6,32.6,116.9,88.4c0,19-4.1,39.4-28.5,38.1c-24.5-1.4-32.6-20.4-27.2-40.8c5.4-27.2,15-51.7-21.8-62.5
	c-31.3-9.5-72.1,10.9-87,43.5c-17.7,38.1-12.2,77.5,10.9,110.1c31.3,44.9,68,87,102,130.5C535.3,568.2,548.9,590,566.5,613.1z"/>
</svg>
