<?xml version="1.0" encoding="utf-8"?>
<!-- Generator: Adobe Illustrator 18.0.0, SVG Export Plug-In . SVG Version: 6.00 Build 0)  -->
<!DOCTYPE svg PUBLIC "-//W3C//DTD SVG 1.1//EN" "http://www.w3.org/Graphics/SVG/1.1/DTD/svg11.dtd">
<svg version="1.1" id="Layer_1" xmlns="http://www.w3.org/2000/svg" xmlns:xlink="http://www.w3.org/1999/xlink" x="0px" y="0px"
	 viewBox="0 0 1280.2 800" enable-background="new 0 0 1280.2 800" xml:space="preserve">
<ellipse cx="586.9" cy="715.9" rx="34.2" ry="39.9"/>
<path d="M611.4,635.7c28.7-54.7,28.7-54.7-26-83.4c-27.3-13.7-54.7-27.3-82-41c-32.8-17.8-34.2-34.2-1.4-53.3
	c28.7-17.8,58.8-34.2,88.8-50.6c9.6-5.5,19.1-12.3,35.5-21.9c-36.9-19.1-67-35.5-97-51.9c-13.7-6.8-28.7-13.7-42.4-21.9
	c-20.5-12.3-34.2-28.7-20.5-53.3c13.7-23.2,34.2-24.6,56-12.3c45.1,27.3,90.2,56,135.3,84.7c13.7,8.2,27.3,16.4,39.6,26
	c31.4,21.9,30.1,32.8-2.7,50.6c-39.6,20.5-79.3,41-117.5,61.5c-6.8,4.1-12.3,8.2-26,17.8c27.3,16.4,49.2,31.4,71.1,45.1
	c8.2,5.5,16.4,8.2,23.2,15c12.3,10.9,30.1,23.2,32.8,36.9C682.4,598.8,633.2,635.7,611.4,635.7z"/>
</svg>
