<?xml version="1.0" encoding="utf-8"?>
<!-- Generator: Adobe Illustrator 18.0.0, SVG Export Plug-In . SVG Version: 6.00 Build 0)  -->
<!DOCTYPE svg PUBLIC "-//W3C//DTD SVG 1.1//EN" "http://www.w3.org/Graphics/SVG/1.1/DTD/svg11.dtd">
<svg version="1.1" id="Layer_1" xmlns="http://www.w3.org/2000/svg" xmlns:xlink="http://www.w3.org/1999/xlink" x="0px" y="0px"
	 viewBox="0 0 1280.2 800" enable-background="new 0 0 1280.2 800" xml:space="preserve">
<g>
	<ellipse cx="586.9" cy="715.9" rx="34.2" ry="39.9"/>
	<path d="M535.3,619.3c-4-5.4-10.7-10.7-13.4-17.5c-36.3-100.7-72.5-201.4-108.8-302.1c-8.1-21.5-13.4-44.3,12.1-59.1
		c17.5-9.4,49.7,5.4,57.7,33.6c14.8,52.4,24.2,106.1,34.9,159.8c9.4,51,17.5,103.4,25.5,154.4c1.3,9.4,0,18.8,0,28.2
		C542,618,539.3,619.3,535.3,619.3z"/>
	<path d="M628,616.6c0-8.1-1.3-17.5,0-25.5c14.8-90,29.5-179.9,45.7-269.9c2.7-16.1,6.7-33.6,13.4-48.3
		c10.7-21.5,28.2-41.6,55.1-32.2c28.2,9.4,22.8,36.3,16.1,57.7c-14.8,45.7-30.9,90-48.3,135.6c-20.1,53.7-40.3,108.8-60.4,162.5
		c-2.7,8.1-10.7,16.1-14.8,24.2C633.3,619.3,630.6,618,628,616.6z"/>
</g>
</svg>
